<?xml version="1.0" encoding="utf-8"?>
<!-- Generator: Adobe Illustrator 16.0.3, SVG Export Plug-In . SVG Version: 6.00 Build 0)  -->
<!DOCTYPE svg PUBLIC "-//W3C//DTD SVG 1.1//EN" "http://www.w3.org/Graphics/SVG/1.1/DTD/svg11.dtd">
<svg version="1.1" id="Warstwa_1" xmlns="http://www.w3.org/2000/svg" xmlns:xlink="http://www.w3.org/1999/xlink" x="0px" y="0px"
	 width="343.357px" height="286.514px" viewBox="0 0 343.357 286.514" enable-background="new 0 0 343.357 286.514"
	 xml:space="preserve">
<g>
	<defs>
		<rect id="SVGID_1_" x="-166.959" y="-286.951" width="626" height="872"/>
	</defs>
	<clipPath id="SVGID_2_">
		<use xlink:href="#SVGID_1_"  overflow="visible"/>
	</clipPath>
</g>
<g>
	<path fill="none" stroke="#000000" stroke-width="13.467" stroke-miterlimit="22.9256" d="M289.286,278.316v-52.645h15.327
		l16.526,31.983l0.091-31.983h15.394v52.645H321.23l-16.562-31.85l-0.056,31.85H289.286z M226.738,252.048
		c0-8.572,2.343-15.342,7.017-20.302c4.674-4.95,11.05-7.431,19.123-7.431c8.057-0.001,15.07,1.891,19.081,7.431
		c4.9,6.77,7.233,13.537,6.999,20.303c-0.294,8.547-2.334,15.315-6.999,20.283c-4.664,4.969-11.024,7.448-19.081,7.448
		c-8.073-0.001-14.449-2.479-19.123-7.448C229.081,267.364,226.738,260.603,226.738,252.048z M243.015,252.048
		c0,4.979,0.794,8.637,2.395,10.97c1.59,2.335,4.078,3.506,7.469,3.506c3.375-0.001,5.846-1.162,7.411-3.485
		c1.573-2.325,2.358-5.985,2.358-10.989c0-5.033-0.786-8.701-2.358-11.024c-1.565-2.326-4.036-3.486-7.411-3.486
		c-3.391-0.001-5.879,1.17-7.469,3.502C243.809,243.374,243.015,247.044,243.015,252.048z M192.181,278.316v-38.774h-14.468v-13.87
		h44.776v13.87h-14.161v38.774H192.181z M120.451,252.048c0-8.572,2.341-15.342,7.015-20.302c4.675-4.95,11.05-7.431,19.123-7.431
		c8.056-0.001,14.416,2.481,19.083,7.431c4.664,4.96,6.998,11.729,6.998,20.303c0,8.554-2.333,15.315-6.998,20.283
		c-4.667,4.969-11.027,7.448-19.083,7.448c-8.073-0.001-14.448-2.479-19.123-7.448C122.792,267.364,120.451,260.603,120.451,252.048
		z M136.727,252.048c0,4.979,0.794,8.637,2.394,10.97c1.59,2.335,4.08,3.506,7.469,3.506c3.375-0.001,5.845-1.162,7.411-3.485
		c1.572-2.325,2.359-5.985,2.359-10.989c0-5.033-0.787-8.701-2.359-11.024c-1.566-2.326-4.036-3.486-7.411-3.486
		c-3.389-0.001-5.879,1.17-7.469,3.502C137.521,243.374,136.727,247.044,136.727,252.048z M62.101,278.316v-52.645h24.063
		c7.531,0,12.904,1.18,16.119,3.54c3.223,2.362,4.832,6.231,4.832,11.611c0,3.221-0.663,5.892-1.984,8.015
		c-1.317,2.111-3.353,3.797-6.104,5.03c2.801,0.624,4.839,1.849,6.114,3.67c1.267,1.822,1.957,4.493,2.043,8.022l0.272,7.322
		l0.034,0.182c0.071,2.096,0.551,3.193,1.435,3.284v1.968H92.646c-0.296-1.264-0.522-2.361-0.672-3.303
		c-0.149-0.943-0.218-1.674-0.218-2.195v-5.262c0-2.708-0.516-4.619-1.54-5.727c-1.021-1.108-2.794-1.665-5.319-1.665l-6.857-0.001
		v18.152H62.101z M78.041,248.299h7.336c2.57,0,4.344-0.366,5.322-1.091c0.978-0.731,1.466-1.993,1.466-3.806
		c0-1.857-0.488-3.146-1.466-3.88c-0.978-0.723-2.892-1.087-5.732-1.087l-6.926-0.002V248.299z M21.203,278.316v-38.774H6.733
		v-13.87h44.777v13.87h-14.16v38.774H21.203z"/>
	<path fill-rule="evenodd" clip-rule="evenodd" fill="#FFFFFF" d="M289.287,278.316v-52.646h15.326l16.526,31.983l0.092-31.983
		h15.393v52.646h-15.393l-16.563-31.851l-0.056,31.851H289.287z M226.739,252.047c0-8.572,2.342-15.342,7.016-20.302
		c4.675-4.95,11.051-7.431,19.124-7.431c8.056-0.001,15.07,1.891,19.081,7.431c4.9,6.769,7.233,13.537,6.999,20.303
		c-0.294,8.547-2.335,15.316-6.999,20.283c-4.665,4.97-11.025,7.448-19.081,7.448c-8.073-0.001-14.449-2.479-19.124-7.448
		C229.081,267.363,226.739,260.602,226.739,252.047z M243.015,252.047c0,4.979,0.794,8.637,2.396,10.97
		c1.59,2.335,4.078,3.506,7.469,3.506c3.374-0.001,5.846-1.162,7.411-3.485c1.572-2.325,2.357-5.985,2.357-10.989
		c0-5.033-0.785-8.701-2.357-11.024c-1.565-2.326-4.037-3.486-7.411-3.486c-3.391-0.001-5.879,1.17-7.469,3.502
		C243.809,243.373,243.015,247.043,243.015,252.047z M192.181,278.316v-38.775h-14.468v-13.87h44.777v13.87h-14.162v38.775H192.181z
		 M120.451,252.047c0-8.572,2.341-15.342,7.015-20.302c4.675-4.95,11.05-7.431,19.123-7.431c8.056-0.001,14.416,2.481,19.083,7.431
		c4.664,4.96,6.998,11.729,6.998,20.303c0,8.554-2.333,15.316-6.998,20.283c-4.667,4.97-11.027,7.448-19.083,7.448
		c-8.073-0.001-14.448-2.479-19.123-7.448C122.792,267.363,120.451,260.602,120.451,252.047z M136.727,252.047
		c0,4.979,0.794,8.637,2.394,10.97c1.59,2.335,4.08,3.506,7.469,3.506c3.375-0.001,5.844-1.162,7.411-3.485
		c1.573-2.325,2.359-5.985,2.359-10.989c0-5.033-0.787-8.701-2.359-11.024c-1.566-2.326-4.036-3.486-7.411-3.486
		c-3.389-0.001-5.879,1.17-7.469,3.502C137.521,243.373,136.727,247.043,136.727,252.047z M62.101,278.316v-52.646h24.063
		c7.531,0,12.905,1.18,16.119,3.54c3.224,2.362,4.832,6.23,4.832,11.611c0,3.221-0.663,5.892-1.984,8.015
		c-1.317,2.111-3.353,3.797-6.104,5.03c2.801,0.624,4.839,1.85,6.115,3.67c1.266,1.822,1.957,4.493,2.043,8.022l0.272,7.322
		l0.034,0.182c0.071,2.096,0.552,3.193,1.435,3.284v1.969H92.646c-0.296-1.265-0.523-2.362-0.672-3.303
		c-0.15-0.944-0.219-1.675-0.219-2.196v-5.262c0-2.708-0.515-4.619-1.54-5.726c-1.021-1.109-2.794-1.666-5.319-1.666l-6.856-0.002
		v18.154H62.101z M78.041,248.298h7.336c2.57,0,4.344-0.366,5.321-1.091c0.978-0.731,1.466-1.993,1.466-3.806
		c0-1.857-0.488-3.146-1.466-3.88c-0.978-0.723-2.892-1.087-5.732-1.087l-6.926-0.002V248.298z M21.203,278.316v-38.775H6.733
		v-13.87h44.778v13.87H37.351v38.775H21.203z"/>
	<path fill-rule="evenodd" clip-rule="evenodd" fill="#FFFFFF" d="M34.715,2.802l3.798,18.041c0,0-9.495,18.516-7.596,20.89
		c1.425,1.898,6.646,6.646,7.122,7.596c0.475,0.949,4.272,8.545,4.272,8.545l7.596,4.747c0,0,6.646,10.92,9.495,12.819
		c2.849,2.373,23.738,12.343,25.162,12.818c0.949,0.475,6.171,7.596,6.171,7.596l12.344,9.494l4.747,2.374l2.849,5.697l5.697,2.374
		l4.273-4.747l-1.424-4.748l0.474-7.121l9.97-6.172l-3.323-3.323l-16.616-5.697l4.272-8.545l-1.899-5.222l-20.889-8.545L87.887,55.5
		v-4.748l-4.272-1.424v-2.374l1.424-0.475l0.475-4.272l4.272-7.121L85.987,18.47l0.475-9.971l-2.848-8.07L70.321,8.024L52.28,8.499
		l-2.374-2.373l-5.697-2.374L34.715,2.802z"/>
	<path fill-rule="evenodd" clip-rule="evenodd" fill="#FFFFFF" d="M104.978,183.682l-3.798,0.475l-0.475-9.02l1.898-1.899
		c0,0,10.919-1.424,12.344-3.322c1.899-1.899,3.323-3.323,3.798-9.971c0.949-6.646,0.949-12.817,0.475-18.04
		c-0.475-4.748-2.374-15.667-2.374-15.667l-1.424-10.445l3.798,0.476c0,0,3.798,23.737,3.798,26.111
		c0,1.899,0.949,15.667,0.949,15.667l-1.899,9.02l-3.323,6.646L104.978,183.682z"/>
	<path fill-rule="evenodd" clip-rule="evenodd" fill="#FFFFFF" d="M186.634,102.5h6.172l7.121,2.373l6.647-1.423
		c0,0,5.222,14.243,13.292,19.465c8.071,4.748,9.495,7.596,9.495,7.596s-5.222,5.222-5.222,7.121c0,1.897-0.949,7.121-0.475,8.545
		c0.475,1.898,1.424,8.546,1.898,9.021c0.475,0.949,0.949,1.899,0.949,1.899l-5.222,2.848c0,0-8.071,5.698-8.546,6.647
		c-0.475,0.474-6.646,5.222-6.646,7.12c-0.475,1.425-2.848,5.223-3.798,6.173c-0.949,0.948-6.172,0.949-6.172,0.949l-6.172-0.476
		l-6.646,0.475l-5.222-0.475l-0.949-4.747l2.373-3.323l5.697-1.899l10.919-1.424l14.243-16.616l1.424-5.696l-1.899-6.172
		l-1.898-2.374c0,0-8.546-8.07-9.97-9.495c-0.95-1.424-6.172-8.545-6.172-8.545L186.634,102.5z"/>
	<polygon fill-rule="evenodd" clip-rule="evenodd" fill="#9A999A" points="85.987,18.944 95.482,19.893 93.583,23.217 
		102.129,25.115 98.806,27.964 114.473,27.964 109.725,32.712 117.321,32.712 120.644,37.459 124.442,30.813 132.038,38.409 
		170.493,40.308 198.979,42.207 222.715,43.631 244.554,54.55 265.917,65.944 272.089,87.307 278.261,106.772 283.958,123.864 
		286.332,130.984 290.604,137.631 295.353,144.278 299.625,148.075 302.948,152.349 301.523,160.42 294.877,161.368 
		288.705,161.844 282.533,159.944 273.039,150.449 268.291,146.177 264.968,149.501 261.169,155.197 256.896,159.471 
		252.149,165.643 248.826,170.864 245.503,176.086 243.604,180.358 240.756,185.58 225.563,186.529 211.321,185.58 212.271,179.41 
		213.22,176.562 214.645,175.611 217.019,174.661 228.887,174.188 235.059,167.54 239.806,160.42 243.604,155.197 245.503,151.874 
		244.554,145.702 242.654,140.955 237.907,135.732 229.836,131.459 221.766,124.813 215.119,118.166 210.847,111.995 
		207.049,104.398 198.979,104.398 193.28,102.974 187.109,103.449 181.887,102.974 176.189,106.772 174.291,109.621 166.695,111.52 
		158.624,113.418 151.028,114.843 145.331,115.792 142.008,115.792 140.109,120.066 138.21,128.611 136.785,136.208 
		135.836,143.328 135.836,149.975 136.311,158.52 136.311,164.691 136.785,170.389 135.361,177.984 131.563,180.358 
		127.291,183.682 124.917,186.056 118.745,187.006 114.947,187.479 111.149,187.006 105.453,187.479 104.978,180.833 
		105.927,176.562 109.25,176.086 116.371,174.661 119.22,173.712 123.018,165.643 123.967,157.097 123.967,149.501 123.493,137.631 
		121.594,127.188 119.694,119.117 117.796,114.843 120.644,111.046 119.22,106.772 120.169,99.651 130.139,93.954 126.341,90.631 
		109.725,83.984 114.947,75.914 112.573,70.691 90.735,62.146 87.887,55.024 88.836,50.277 84.088,49.802 85.987,41.731 
		90.735,35.56 	"/>
	
		<line fill="none" stroke="#000000" stroke-width="1.6795" stroke-miterlimit="22.9256" x1="81.714" y1="8.026" x2="79.815" y2="15.148"/>
	<polyline fill="none" stroke="#000000" stroke-width="1.4689" stroke-miterlimit="22.9256" points="52.279,8.5 45.633,14.198 
		42.785,7.552 	"/>
	<polyline fill="none" stroke="#000000" stroke-width="1.6795" stroke-miterlimit="22.9256" points="68.421,35.562 69.845,33.663 
		78.391,31.29 	"/>
	<path fill-rule="evenodd" clip-rule="evenodd" d="M75.068,35.087c-0.475,0.949-1.424,1.424-2.375,0.95
		c-0.949,0-1.424-0.949-1.424-1.898c0.475-0.476,1.424-0.95,2.374-0.95C74.593,33.663,75.068,34.613,75.068,35.087z"/>
	<path fill="none" stroke="#000000" stroke-width="0.5586" stroke-miterlimit="22.9256" d="M75.068,35.087
		c-0.475,0.949-1.424,1.424-2.375,0.95c-0.949,0-1.424-0.949-1.424-1.898c0.475-0.476,1.424-0.95,2.374-0.95
		C74.593,33.663,75.068,34.613,75.068,35.087z"/>
	<path fill-rule="evenodd" clip-rule="evenodd" d="M52.754,34.138c0,0.949-0.475,1.899-1.424,1.899
		c-0.949,0-1.898-0.475-2.374-0.949c0-0.95,0.476-1.899,1.425-1.899C51.33,32.714,52.279,33.188,52.754,34.138z"/>
	<path fill="none" stroke="#000000" stroke-width="0.5586" stroke-miterlimit="22.9256" d="M52.754,34.138
		c0,0.949-0.475,1.899-1.424,1.899c-0.949,0-1.898-0.475-2.374-0.949c0-0.95,0.476-1.899,1.425-1.899
		C51.33,32.714,52.279,33.188,52.754,34.138z"/>
	<polyline fill="none" stroke="#000000" stroke-width="1.6795" stroke-miterlimit="22.9256" points="45.633,31.29 53.704,33.663 
		55.128,35.562 	"/>
	
		<line fill="none" stroke="#000000" stroke-width="1.6795" stroke-miterlimit="22.9256" x1="59.401" y1="27.965" x2="59.401" y2="31.764"/>
	
		<line fill="none" stroke="#000000" stroke-width="1.6795" stroke-miterlimit="22.9256" x1="62.725" y1="24.642" x2="61.774" y2="31.764"/>
	<path fill="none" stroke="#000000" stroke-width="1.5831" stroke-miterlimit="22.9256" d="M51.33,51.704l-0.475,1.898l3.323,3.323
		c0,0,2.849-0.474,4.747-0.474c1.425-0.476,2.849-0.95,3.324-0.475c0.475,0.474,2.849,0.95,2.849,0.95s3.798-0.95,4.272-1.424
		c0.475-0.476,0.95-3.323,0.95-3.323v-1.9"/>
	<polygon fill-rule="evenodd" clip-rule="evenodd" points="58.452,47.904 58.452,50.277 60.351,51.702 62.25,51.702 63.674,50.751 
		64.149,47.904 	"/>
	<polyline fill="none" stroke="#000000" stroke-width="0.5586" stroke-miterlimit="22.9256" points="58.452,47.906 58.452,50.279 
		60.351,51.704 62.25,51.704 63.674,50.753 64.148,47.906 	"/>
	<path fill="none" stroke="#000000" stroke-width="1.6795" stroke-miterlimit="22.9256" d="M84.088,87.783l6.172,8.071
		l13.768,10.445c0,0,3.798,1.425,4.272,2.849c0.476,0.948,2.849,4.747,2.849,4.747l2.849,0.949h0.475l0.475,0.475l3.798,0.951
		c0,0,4.272,13.767,4.747,27.06c0,13.292,0.475,15.192,0.475,15.192l-1.899,9.019l-3.323,6.647l-11.394,1.424
		c0,0-2.374,0.95-2.374,2.85c-0.475,2.372,0,8.07,0,8.07v0.949l19.939-0.95c0,0,6.646-7.12,9.02-8.069
		c2.374-0.477,1.899-2.374,2.374-5.223c0.475-2.374,0-27.535-0.475-28.96c0-1.425,2.849-16.615,3.323-18.515
		c0.475-2.375,1.424-7.596,1.424-7.596l2.849-5.698c0,0-0.949-6.171-2.374-7.595"/>
	<path fill="none" stroke="#000000" stroke-width="1.6795" stroke-miterlimit="22.9256" d="M104.027,184.157h-2.849
		c0,0-1.899-9.019-0.475-10.443c0.95-0.95,12.344-2.374,13.768-3.323c1.424-1.425,4.273-5.223,4.748-11.868
		c0.949-6.173-0.475-19.465-0.95-24.688c-0.949-4.748-3.323-18.04-3.323-18.04"/>
	<path fill="none" stroke="#000000" stroke-width="1.6795" stroke-miterlimit="22.9256" d="M141.058,117.219
		c0,0,28.959-6.171,30.858-6.646c1.424,0,8.07-7.596,11.394-7.596c3.323,0,9.495-0.949,10.445,0
		c0.949,0.474,6.171,1.424,6.171,1.424l7.121-0.476"/>
	<path fill="none" stroke="#000000" stroke-width="1.6795" stroke-miterlimit="22.9256" d="M201.351,96.804
		c0,0,3.797-0.474,4.272,0.951c0.475,1.423,0.95,3.797,1.424,6.171c0.476,1.899,3.799,11.394,9.021,15.192
		c4.747,4.271,10.919,10.444,15.667,12.818c4.747,2.848,11.394,8.07,12.343,12.343c0.95,4.748,1.899,7.121,0.475,8.07
		c-1.424,1.424-7.596,12.344-9.02,14.243c-1.899,1.898-6.646,7.121-6.646,7.121h-9.495c0,0-6.646,0.476-7.121,3.323
		c0,2.374-0.949,8.545-0.949,8.545v0.949c0,0,14.242,0.001,17.565,0.001c3.798-0.001,12.343,0,12.343-1.899
		s7.597-13.293,7.597-13.293s6.172-9.969,9.97-13.768s8.07-9.495,8.07-9.495l3.323-7.121c0,0-9.021-10.919-12.343-16.616
		c-3.323-6.173-8.546-13.293-6.646-19.939c1.898-6.646,3.323-14.242,3.323-19.939c0-5.223,0.475-18.041,0.475-18.041"/>
	<path fill="none" stroke="#000000" stroke-width="1.6795" stroke-miterlimit="22.9256" d="M186.633,102.976
		c0,0,3.799,13.768,5.223,17.091c1.424,3.322,5.696,7.597,9.021,11.395c2.848,3.796,8.07,8.07,8.07,8.07l2.849,7.121l-1.425,5.222
		l-13.768,17.565l-11.394,0.95l-5.697,2.373l-2.373,3.324l0.475,4.746l22.787,0.475c0,0,2.849-0.474,3.799-3.322
		c1.424-2.849,2.848-7.121,10.919-12.818c8.071-6.172,11.394-8.07,11.394-8.07s-4.273-12.343-2.848-17.565
		c1.424-4.748,5.696-8.546,5.696-8.546"/>
	<path fill="none" stroke="#000000" stroke-width="1.6795" stroke-miterlimit="22.9256" d="M267.815,145.703
		c10.919,10.444,11.394,10.92,14.242,13.769c1.424,1.424,5.697,2.849,5.697,2.849l4.747-0.001l8.545-1.424
		c0,0,3.324-6.646,2.374-9.021c-0.949-2.373-5.223-5.696-8.07-8.545c-2.849-3.324-9.021-12.818-10.444-15.191
		c-1.425-2.375-18.516-62.192-18.516-62.192s-36.081-20.889-43.677-22.313c-7.121-1.425-86.878-4.748-88.778-5.222
		c-2.374,0-9.495-8.545-9.495-8.545l-3.798,6.646l-2.848-4.747l-7.121,0.95l5.222-5.223H99.754l3.323-2.849l-9.02-1.898l2.374-2.849
		l-6.646-0.949l-3.323-0.95c0,0-0.475-4.272,0-6.646c0-1.9-2.374-11.394-2.848-10.444c-0.95,0.949-13.768,7.121-13.768,7.121
		L53.704,8.5c0,0-2.374-0.473-2.849-1.423c0-0.95-6.646-2.374-9.02-3.798c-2.849-0.95-8.545-0.475-7.122,0
		c0.95,0.948,0,3.798,0.95,9.02c0.95,4.747,2.374,9.495,2.374,9.495s-0.95,2.848-2.849,4.273
		c-1.898,1.897-4.272,16.141-4.272,16.141s4.748,6.172,6.171,6.646c1.424,0.474,3.799,8.071,6.172,9.97
		c2.374,1.898,5.222,3.798,6.172,4.272c1.424,0.474,0,0.475,6.171,8.545c5.697,7.595,10.445,8.071,17.091,10.919
		c7.122,2.373,12.819,6.171,12.819,6.171"/>
	<polyline fill="none" stroke="#000000" stroke-width="1.5027" stroke-miterlimit="22.9256" points="79.34,14.198 85.987,18.472 
		87.886,23.218 90.26,35.087 85.987,42.208 85.038,47.43 	"/>
	<polyline fill="none" stroke="#000000" stroke-width="1.6795" stroke-miterlimit="22.9256" points="84.088,46.481 83.613,49.804 
		88.361,50.753 87.411,55.501 90.734,61.673 112.098,70.218 114.472,75.916 109.25,83.986 125.866,89.683 130.139,93.48 
		120.168,99.178 119.219,106.299 120.643,111.522 116.845,115.319 	"/>
</g>
</svg>
